<svg width="22" height="23" viewBox="0 0 22 23" fill="none" xmlns="http://www.w3.org/2000/svg">
<path d="M0.107422 9.40293C0.0429688 9.96402 0 10.5345 0 11.1143C0 16.2108 2.56523 20.6481 6.36367 23L7.07266 21.3728V10.2586L6.28633 9.40293H0.107422ZM22 10.2586C22 9.40293 21.2137 8.54727 20.4273 8.54727H14.141C14.532 6.83594 14.9273 5.12929 14.9273 4.27363C14.9273 2.56231 14.141 0.855662 13.75 0.425493C13.7414 0.416141 13.359 0 12.5727 0C11.3953 0 11.3953 1.28115 11.3953 1.28115C11.3953 1.30453 11.0043 3.41797 11.0043 4.27363C11.0043 5.12929 9.43164 8.54727 8.64531 9.40293L7.85898 9.82842V21.7983L8.64531 22.2238H17.2863C18.859 22.2238 19.6453 21.3682 19.6453 20.5125C19.6453 19.6568 18.859 18.8012 18.0727 18.8012C19.6453 18.8012 20.4316 17.9455 20.4316 17.0899C20.4316 16.2342 19.6453 15.3785 18.859 15.3785C20.4316 15.3785 21.218 14.5229 21.218 13.6672C21.218 12.8115 20.4316 11.9559 19.6453 11.9559C21.2137 11.9699 22 11.1143 22 10.2586Z" fill="#1D4ED8"/>
</svg>
