<svg width="25" height="25" viewBox="0 0 25 25" fill="none" xmlns="http://www.w3.org/2000/svg">
<path d="M12.0565 3.98091L12.5 4.83269L12.9435 3.98091C14.0671 1.82285 16.0152 0.5 18.1818 0.5C21.5665 0.5 24.5 3.92765 24.5 8.33333C24.5 10.2937 23.7634 12.2871 22.6181 14.1959C21.4744 16.102 19.9419 17.8927 18.3964 19.4381C16.8526 20.982 15.3068 22.2703 14.1462 23.173C13.5662 23.6241 13.0835 23.9781 12.7465 24.2188C12.6531 24.2855 12.571 24.3434 12.5011 24.3923C12.431 24.3429 12.3486 24.2843 12.2549 24.2169C11.9178 23.9744 11.435 23.618 10.855 23.1642C9.69413 22.2559 8.14813 20.9609 6.60404 19.4126C5.05835 17.8626 3.52554 16.0695 2.38168 14.1663C1.23605 12.2601 0.5 10.2757 0.5 8.33333C0.5 3.92765 3.43346 0.5 6.81818 0.5C8.98483 0.5 10.9329 1.82285 12.0565 3.98091Z" fill="white" stroke="#FF0303"/>
</svg>
